<svg width="24" height="17" viewBox="0 0 24 17" fill="none" xmlns="http://www.w3.org/2000/svg">
<path d="M4.5 7.9676C3.8 7.9676 3.20833 7.75366 2.725 7.32577C2.24167 6.89788 2 6.37408 2 5.75438C2 5.13468 2.24167 4.61088 2.725 4.18299C3.20833 3.7551 3.8 3.54116 4.5 3.54116C5.2 3.54116 5.79167 3.7551 6.275 4.18299C6.75833 4.61088 7 5.13468 7 5.75438C7 6.37408 6.75833 6.89788 6.275 7.32577C5.79167 7.75366 5.2 7.9676 4.5 7.9676ZM9 4.42645C8.3 4.42645 7.70833 4.2125 7.225 3.78461C6.74167 3.35672 6.5 2.83292 6.5 2.21322C6.5 1.59352 6.74167 1.06972 7.225 0.641834C7.70833 0.213945 8.3 0 9 0C9.7 0 10.2917 0.213945 10.775 0.641834C11.2583 1.06972 11.5 1.59352 11.5 2.21322C11.5 2.83292 11.2583 3.35672 10.775 3.78461C10.2917 4.2125 9.7 4.42645 9 4.42645ZM15 4.42645C14.3 4.42645 13.7083 4.2125 13.225 3.78461C12.7417 3.35672 12.5 2.83292 12.5 2.21322C12.5 1.59352 12.7417 1.06972 13.225 0.641834C13.7083 0.213945 14.3 0 15 0C15.7 0 16.2917 0.213945 16.775 0.641834C17.2583 1.06972 17.5 1.59352 17.5 2.21322C17.5 2.83292 17.2583 3.35672 16.775 3.78461C16.2917 4.2125 15.7 4.42645 15 4.42645ZM19.5 7.9676C18.8 7.9676 18.2083 7.75366 17.725 7.32577C17.2417 6.89788 17 6.37408 17 5.75438C17 5.13468 17.2417 4.61088 17.725 4.18299C18.2083 3.7551 18.8 3.54116 19.5 3.54116C20.2 3.54116 20.7917 3.7551 21.275 4.18299C21.7583 4.61088 22 5.13468 22 5.75438C22 6.37408 21.7583 6.89788 21.275 7.32577C20.7917 7.75366 20.2 7.9676 19.5 7.9676ZM6.65 16.8205C5.9 16.8205 5.271 16.5658 4.763 16.0565C4.25433 15.5477 4 14.9466 4 14.2532C4 13.4859 4.296 12.8146 4.888 12.2391C5.47933 11.6637 6.06667 11.0956 6.65 10.5349C7.13333 10.0775 7.55 9.57942 7.9 9.04057C8.25 8.50231 8.66667 7.99711 9.15 7.52496C9.51667 7.14133 9.94167 6.8241 10.425 6.57327C10.9083 6.32244 11.4333 6.19702 12 6.19702C12.5667 6.19702 13.0917 6.31506 13.575 6.55114C14.0583 6.78721 14.4833 7.09707 14.85 7.48069C15.3167 7.95285 15.729 8.46189 16.087 9.00782C16.4457 9.55374 16.8667 10.0628 17.35 10.5349C17.9333 11.0956 18.521 11.6637 19.113 12.2391C19.7043 12.8146 20 13.4859 20 14.2532C20 14.9466 19.746 15.5477 19.238 16.0565C18.7293 16.5658 18.1 16.8205 17.35 16.8205C16.45 16.8205 15.5583 16.7541 14.675 16.6213C13.7917 16.4885 12.9 16.4221 12 16.4221C11.1 16.4221 10.2083 16.4885 9.325 16.6213C8.44167 16.7541 7.55 16.8205 6.65 16.8205Z" fill="#332207"/>
</svg>
