<svg width="32" height="29" viewBox="0 0 32 29" fill="none" xmlns="http://www.w3.org/2000/svg">
<path d="M9.10346 9.90554C8.34484 9.90554 7.69564 9.62818 7.15587 9.07347C6.61518 8.51971 6.34484 7.85368 6.34484 7.07538C6.34484 6.29709 6.61518 5.63106 7.15587 5.0773C7.69564 4.52259 8.34484 4.24523 9.10346 4.24523C9.86208 4.24523 10.5113 4.52259 11.051 5.0773C11.5917 5.63106 11.8621 6.29709 11.8621 7.07538C11.8621 7.85368 11.5917 8.51971 11.051 9.07347C10.5113 9.62818 9.86208 9.90554 9.10346 9.90554ZM6.34484 28.3015C5.95404 28.3015 5.62622 28.1657 5.36139 27.894C5.09748 27.6232 4.96553 27.2874 4.96553 26.8865C4.20691 26.8865 3.55771 26.6096 3.01794 26.0558C2.47725 25.5011 2.20691 24.8346 2.20691 24.0563V15.5658H6.34484V14.5045C6.34484 13.6083 6.64369 12.8536 7.24139 12.2404C7.83909 11.6272 8.57473 11.3206 9.44829 11.3206C9.90806 11.3206 10.3333 11.415 10.7242 11.6036C11.115 11.7923 11.4713 12.0517 11.7931 12.3819L13.7242 14.5753C13.9081 14.764 14.0864 14.9409 14.2593 15.1059C14.4313 15.271 14.6207 15.4243 14.8276 15.5658H24.2759V4.03297C24.2759 3.70278 24.1609 3.41977 23.931 3.18392C23.7012 2.94808 23.4253 2.83015 23.1035 2.83015C22.9655 2.83015 22.8336 2.8594 22.7076 2.91789C22.5807 2.97732 22.4598 3.066 22.3448 3.18392L20.6207 4.95277C20.7356 5.35371 20.7586 5.74899 20.6897 6.1386C20.6207 6.52728 20.4828 6.88671 20.2759 7.21689L16.4828 3.25468C16.8046 3.04242 17.1494 2.90657 17.5173 2.84713C17.8851 2.78864 18.2529 2.83015 18.6207 2.97166L20.3448 1.20282C20.7127 0.825461 21.132 0.530654 21.6028 0.318392C22.0745 0.106131 22.5747 0 23.1035 0C24.2069 0 25.1379 0.389146 25.8966 1.16744C26.6552 1.94573 27.0345 2.90091 27.0345 4.03297V15.5658H29.7931V24.0563C29.7931 24.8346 29.5232 25.5011 28.9835 26.0558C28.4428 26.6096 27.7931 26.8865 27.0345 26.8865C27.0345 27.2874 26.9021 27.6232 26.6373 27.894C26.3733 28.1657 26.046 28.3015 25.6552 28.3015H6.34484ZM4.96553 24.0563H27.0345V18.396H4.96553V24.0563Z" fill="#332207"/>
</svg>
