<svg width="32" height="22" viewBox="0 0 32 22" fill="none" xmlns="http://www.w3.org/2000/svg">
<path d="M8.1312 18.8368V20.1822C8.1312 20.5635 8.00574 20.8828 7.75481 21.1402C7.50301 21.3986 7.19131 21.5277 6.81973 21.5277H5.50825C5.13667 21.5277 4.82541 21.3986 4.57448 21.1402C4.32268 20.8828 4.19678 20.5635 4.19678 20.1822V9.41838L6.95088 1.34548C7.08202 0.941838 7.31721 0.61668 7.65645 0.370008C7.99481 0.123336 8.37164 0 8.78694 0H23.2132C23.6285 0 24.0057 0.123336 24.345 0.370008C24.6833 0.61668 24.9181 0.941838 25.0492 1.34548L27.8033 9.41838V20.1822C27.8033 20.5635 27.6774 20.8828 27.4256 21.1402C27.1747 21.3986 26.8634 21.5277 26.4919 21.5277H25.1804C24.8088 21.5277 24.4975 21.3986 24.2466 21.1402C23.9948 20.8828 23.8689 20.5635 23.8689 20.1822V18.8368H8.1312ZM7.86891 6.72741H24.1312L22.7542 2.69097H9.24596L7.86891 6.72741ZM10.0984 14.8003C10.6449 14.8003 11.1091 14.6039 11.4912 14.211C11.8742 13.819 12.0656 13.3427 12.0656 12.7821C12.0656 12.2215 11.8742 11.7452 11.4912 11.3532C11.1091 10.9603 10.6449 10.7639 10.0984 10.7639C9.55197 10.7639 9.08771 10.9603 8.70563 11.3532C8.32268 11.7452 8.1312 12.2215 8.1312 12.7821C8.1312 13.3427 8.32268 13.819 8.70563 14.211C9.08771 14.6039 9.55197 14.8003 10.0984 14.8003ZM21.9017 14.8003C22.4481 14.8003 22.9124 14.6039 23.2945 14.211C23.6774 13.819 23.8689 13.3427 23.8689 12.7821C23.8689 12.2215 23.6774 11.7452 23.2945 11.3532C22.9124 10.9603 22.4481 10.7639 21.9017 10.7639C21.3552 10.7639 20.891 10.9603 20.5089 11.3532C20.126 11.7452 19.9345 12.2215 19.9345 12.7821C19.9345 13.3427 20.126 13.819 20.5089 14.211C20.891 14.6039 21.3552 14.8003 21.9017 14.8003ZM6.81973 16.1458H25.1804V9.41838H6.81973V16.1458Z" fill="#332207"/>
</svg>
