<svg width="24" height="18" viewBox="0 0 24 18" fill="none" xmlns="http://www.w3.org/2000/svg">
<path d="M6 17.7058C5.45 17.7058 4.97933 17.5326 4.588 17.1861C4.196 16.8391 4 16.4221 4 15.9352V1.77058C4 1.28367 4.196 0.866698 4.588 0.519664C4.97933 0.173221 5.45 0 6 0H20V1.77058H18V3.54116C18 3.79199 17.904 4.00239 17.712 4.17237C17.5207 4.34175 17.2833 4.42644 17 4.42644H9C8.71667 4.42644 8.47933 4.34175 8.288 4.17237C8.096 4.00239 8 3.79199 8 3.54116V1.77058H6V15.9352H10.05C9.41667 15.5368 8.91667 15.0316 8.55 14.4196C8.18333 13.807 8 13.1318 8 12.394V7.9676H18V12.394C18 13.1318 17.8167 13.807 17.45 14.4196C17.0833 15.0316 16.5833 15.5368 15.95 15.9352H20V17.7058H6ZM13 15.0499C13.8333 15.0499 14.5417 14.7917 15.125 14.2753C15.7083 13.7589 16 13.1318 16 12.394V9.73818H10V12.394C10 13.1318 10.2917 13.7589 10.875 14.2753C11.4583 14.7917 12.1667 15.0499 13 15.0499ZM13 7.08231C13.2833 7.08231 13.521 6.99732 13.713 6.82735C13.9043 6.65796 14 6.44785 14 6.19702C14 5.94619 13.9043 5.73579 13.713 5.56581C13.521 5.39643 13.2833 5.31173 13 5.31173C12.7167 5.31173 12.4793 5.39643 12.288 5.56581C12.096 5.73579 12 5.94619 12 6.19702C12 6.44785 12.096 6.65796 12.288 6.82735C12.4793 6.99732 12.7167 7.08231 13 7.08231Z" fill="#332207"/>
</svg>
