<svg width="32" height="28" viewBox="0 0 32 28" fill="none" xmlns="http://www.w3.org/2000/svg">
<path d="M10.5531 8.38207V4.19104H13.2765V8.38207H10.5531ZM10.5531 20.9552V13.9701H13.2765V20.9552H10.5531ZM7.82973 27.9402C7.08079 27.9402 6.43988 27.6669 5.907 27.1202C5.37322 26.5726 5.10632 25.9146 5.10632 25.1462V2.79402C5.10632 2.02567 5.37322 1.36767 5.907 0.820046C6.43988 0.273349 7.08079 0 7.82973 0H24.1702C24.9191 0 25.5604 0.273349 26.0942 0.820046C26.6271 1.36767 26.8936 2.02567 26.8936 2.79402V25.1462C26.8936 25.9146 26.6271 26.5726 26.0942 27.1202C25.5604 27.6669 24.9191 27.9402 24.1702 27.9402H7.82973ZM7.82973 25.1462H24.1702V12.5731H7.82973V25.1462ZM7.82973 9.77908H24.1702V2.79402H7.82973V9.77908Z" fill="#332207"/>
</svg>
