<svg width="24" height="18" viewBox="0 0 24 18" fill="none" xmlns="http://www.w3.org/2000/svg">
<path d="M8 15.0499H9.5V9.07421C9.93333 8.95617 10.2917 8.74577 10.575 8.443C10.8583 8.14082 11 7.77579 11 7.3479V3.9838C11 3.86576 10.95 3.76248 10.85 3.67395C10.75 3.58542 10.6333 3.54116 10.5 3.54116C10.3667 3.54116 10.25 3.58542 10.15 3.67395C10.05 3.76248 10 3.86576 10 3.9838V6.19702H9.25V3.9838C9.25 3.86576 9.2 3.76248 9.1 3.67395C9 3.58542 8.88333 3.54116 8.75 3.54116C8.61667 3.54116 8.5 3.58542 8.4 3.67395C8.3 3.76248 8.25 3.86576 8.25 3.9838V6.19702H7.5V3.9838C7.5 3.86576 7.45 3.76248 7.35 3.67395C7.25 3.58542 7.13333 3.54116 7 3.54116C6.86667 3.54116 6.75 3.58542 6.65 3.67395C6.55 3.76248 6.5 3.86576 6.5 3.9838V7.3479C6.5 7.77579 6.64167 8.14082 6.925 8.443C7.20833 8.74577 7.56667 8.95617 8 9.07421V15.0499ZM14 15.0499H15.5V9.42833C16.05 9.19225 16.4793 8.816 16.788 8.29958C17.096 7.78316 17.25 7.17822 17.25 6.48474C17.25 5.64372 17.0127 4.94286 16.538 4.38218C16.0627 3.8215 15.4667 3.54116 14.75 3.54116C14.0333 3.54116 13.4377 3.8215 12.963 4.38218C12.4877 4.94286 12.25 5.64372 12.25 6.48474C12.25 7.17822 12.4043 7.78316 12.713 8.29958C13.021 8.816 13.45 9.19225 14 9.42833V15.0499ZM4 17.7058C3.45 17.7058 2.97933 17.5326 2.588 17.1861C2.196 16.8391 2 16.4221 2 15.9352V1.77058C2 1.28367 2.196 0.866698 2.588 0.519664C2.97933 0.173221 3.45 0 4 0H20C20.55 0 21.021 0.173221 21.413 0.519664C21.8043 0.866698 22 1.28367 22 1.77058V15.9352C22 16.4221 21.8043 16.8391 21.413 17.1861C21.021 17.5326 20.55 17.7058 20 17.7058H4ZM4 15.9352H20V1.77058H4V15.9352Z" fill="#332207"/>
</svg>
