<svg width="32" height="27" viewBox="0 0 32 27" fill="none" xmlns="http://www.w3.org/2000/svg">
<path d="M6.79651 26.1476V0H16.708C19.0679 0 21.0738 0.847377 22.7257 2.54213C24.3776 4.23688 25.2036 6.2948 25.2036 8.71587C25.2036 11.1369 24.3776 13.1949 22.7257 14.8896C21.0738 16.5844 19.0679 17.4317 16.708 17.4317H12.4602V26.1476H6.79651ZM12.4602 11.6212H16.9912C17.77 11.6212 18.4369 11.3364 18.9919 10.767C19.546 10.1985 19.8231 9.51483 19.8231 8.71587C19.8231 7.91692 19.546 7.23272 18.9919 6.66328C18.4369 6.09482 17.77 5.81058 16.9912 5.81058H12.4602V11.6212Z" fill="#332207"/>
</svg>
