<svg width="23" height="19" viewBox="0 0 23 19" fill="none" xmlns="http://www.w3.org/2000/svg">
<path d="M19.4 18.237L12.8 12.394H1.6V9.73818H9.8L1 1.94764L2.4 0.708231L20.8 16.9975L19.4 18.237ZM18.45 12.394L17.6 11.6415V9.73818H19.1V12.394H18.45ZM20.1 12.394V9.73818H21.6V12.394H20.1ZM16.6 10.7563L15.45 9.73818H16.6V10.7563ZM17.6 8.85289V7.70201C17.6 7.12658 17.4083 6.68747 17.025 6.3847C16.6417 6.08252 16.1833 5.93144 15.65 5.93144H14.1C13.1667 5.93144 12.375 5.64372 11.725 5.06828C11.075 4.49284 10.75 3.79199 10.75 2.96572C10.75 2.13945 11.075 1.43859 11.725 0.863157C12.375 0.287719 13.1667 0 14.1 0V1.32793C13.6 1.32793 13.1667 1.48286 12.8 1.79271C12.4333 2.10256 12.25 2.49356 12.25 2.96572C12.25 3.43787 12.4333 3.82887 12.8 4.13873C13.1667 4.44858 13.6 4.6035 14.1 4.6035H15.65C16.5833 4.6035 17.3917 4.86909 18.075 5.40026C18.7583 5.93144 19.1 6.5954 19.1 7.39216V8.85289H17.6ZM20.1 8.85289V6.86099C20.1 5.88717 19.7167 5.04615 18.95 4.33792C18.1833 3.62968 17.2333 3.27557 16.1 3.27557V1.94764C16.6 1.94764 17.0333 1.78533 17.4 1.46073C17.7667 1.13612 17.95 0.752495 17.95 0.309851H19.45C19.45 0.737741 19.3583 1.12491 19.175 1.47135C18.9917 1.81838 18.75 2.13945 18.45 2.43454C19.3833 2.81817 20.1417 3.40836 20.725 4.20512C21.3083 5.00188 21.6 5.88717 21.6 6.86099V8.85289H20.1Z" fill="#332207"/>
</svg>
