<svg width="24" height="16" viewBox="0 0 24 16" fill="none" xmlns="http://www.w3.org/2000/svg">
<path d="M2 15.9352V14.1646C2.63333 14.1646 3.10833 14.0171 3.425 13.722C3.74167 13.4269 4.36667 13.2793 5.3 13.2793C6.23333 13.2793 6.875 13.4269 7.225 13.722C7.575 14.0171 8.05 14.1646 8.65 14.1646C9.25 14.1646 9.725 14.0171 10.075 13.722C10.425 13.4269 11.0667 13.2793 12 13.2793C12.9333 13.2793 13.575 13.4269 13.925 13.722C14.275 14.0171 14.75 14.1646 15.35 14.1646C15.95 14.1646 16.425 14.0171 16.775 13.722C17.125 13.4269 17.7667 13.2793 18.7 13.2793C19.6333 13.2793 20.2583 13.4269 20.575 13.722C20.8917 14.0171 21.3667 14.1646 22 14.1646V15.9352C21.0167 15.9352 20.3707 15.7877 20.062 15.4926C19.754 15.1975 19.3 15.0499 18.7 15.0499C18.1 15.0499 17.625 15.1975 17.275 15.4926C16.925 15.7877 16.2833 15.9352 15.35 15.9352C14.4167 15.9352 13.775 15.7877 13.425 15.4926C13.075 15.1975 12.6 15.0499 12 15.0499C11.4 15.0499 10.925 15.1975 10.575 15.4926C10.225 15.7877 9.58333 15.9352 8.65 15.9352C7.71667 15.9352 7.075 15.7877 6.725 15.4926C6.375 15.1975 5.9 15.0499 5.3 15.0499C4.7 15.0499 4.246 15.1975 3.938 15.4926C3.62933 15.7877 2.98333 15.9352 2 15.9352ZM2 11.9514V10.1808C2.63333 10.1808 3.10833 10.0333 3.425 9.73818C3.74167 9.44308 4.36667 9.29553 5.3 9.29553C6.23333 9.29553 6.87933 9.44308 7.238 9.73818C7.596 10.0333 8.06667 10.1808 8.65 10.1808C9.25 10.1808 9.725 10.0333 10.075 9.73818C10.425 9.44308 11.0667 9.29553 12 9.29553C12.9333 9.29553 13.575 9.44308 13.925 9.73818C14.275 10.0333 14.75 10.1808 15.35 10.1808C15.95 10.1808 16.425 10.0333 16.775 9.73818C17.125 9.44308 17.7667 9.29553 18.7 9.29553C19.6333 9.29553 20.2583 9.44308 20.575 9.73818C20.8917 10.0333 21.3667 10.1808 22 10.1808V11.9514C21.0167 11.9514 20.3707 11.8039 20.062 11.5088C19.754 11.2137 19.3 11.0661 18.7 11.0661C18.1 11.0661 17.6373 11.2137 17.312 11.5088C16.9873 11.8039 16.3333 11.9514 15.35 11.9514C14.4 11.9514 13.7543 11.8039 13.413 11.5088C13.071 11.2137 12.6 11.0661 12 11.0661C11.3667 11.0661 10.896 11.2137 10.588 11.5088C10.2793 11.8039 9.63333 11.9514 8.65 11.9514C7.66667 11.9514 7.01267 11.8039 6.688 11.5088C6.36267 11.2137 5.9 11.0661 5.3 11.0661C4.7 11.0661 4.246 11.2137 3.938 11.5088C3.62933 11.8039 2.98333 11.9514 2 11.9514ZM6.9 7.43643L10.225 4.49284L9.225 3.60755C8.675 3.12064 8.09167 2.76653 7.475 2.54521C6.85833 2.32388 6.1 2.21322 5.2 2.21322V0C6.45 0 7.48333 0.12158 8.3 0.364739C9.11667 0.608489 9.91667 1.0771 10.7 1.77058L17.1 7.43643C16.8167 7.59873 16.5417 7.72769 16.275 7.8233C16.0083 7.9195 15.7 7.9676 15.35 7.9676C14.75 7.9676 14.275 7.82005 13.925 7.52496C13.575 7.22986 12.9333 7.08231 12 7.08231C11.0667 7.08231 10.425 7.22986 10.075 7.52496C9.725 7.82005 9.25 7.9676 8.65 7.9676C8.3 7.9676 7.99167 7.9195 7.725 7.8233C7.45833 7.72769 7.18333 7.59873 6.9 7.43643ZM16.7 0C17.4 0 17.9917 0.217486 18.475 0.652458C18.9583 1.08802 19.2 1.60827 19.2 2.21322C19.2 2.83292 18.9583 3.35672 18.475 3.78461C17.9917 4.2125 17.4 4.42645 16.7 4.42645C16 4.42645 15.4083 4.2125 14.925 3.78461C14.4417 3.35672 14.2 2.83292 14.2 2.21322C14.2 1.60827 14.4417 1.08802 14.925 0.652458C15.4083 0.217486 16 0 16.7 0Z" fill="#332207"/>
</svg>
