<svg width="32" height="26" viewBox="0 0 32 26" fill="none" xmlns="http://www.w3.org/2000/svg">
<path d="M10.4828 25.4714V22.6412H13.2414V19.8111H4.96553C4.20691 19.8111 3.55771 19.5342 3.01794 18.9804C2.47725 18.4257 2.20691 17.7592 2.20691 16.9809V2.83015C2.20691 2.05186 2.47725 1.38536 3.01794 0.83065C3.55771 0.276883 4.20691 0 4.96553 0H27.0345C27.7931 0 28.4428 0.276883 28.9835 0.83065C29.5232 1.38536 29.7931 2.05186 29.7931 2.83015V16.9809C29.7931 17.7592 29.5232 18.4257 28.9835 18.9804C28.4428 19.5342 27.7931 19.8111 27.0345 19.8111H18.7586V22.6412H21.5173V25.4714H10.4828ZM4.96553 16.9809H27.0345V2.83015H4.96553V16.9809Z" fill="#332207"/>
</svg>
