<svg width="32" height="26" viewBox="0 0 32 26" fill="none" xmlns="http://www.w3.org/2000/svg">
<path d="M8.00004 25.9902V24.6223L10 23.2544C8.68893 23.2544 7.5836 22.793 6.68404 21.8701C5.7836 20.9463 5.33337 19.8119 5.33337 18.4668V5.47163C5.33337 3.57936 6.18893 2.19412 7.90004 1.31593C9.61115 0.438642 12.3112 0 16 0C19.8223 0 22.5556 0.421771 24.2 1.26531C25.8445 2.10886 26.6667 3.51096 26.6667 5.47163V18.4668C26.6667 19.8119 26.2169 20.9463 25.3174 21.8701C24.4169 22.793 23.3112 23.2544 22 23.2544L24 24.6223V25.9902H8.00004ZM8.00004 10.9433H24V6.83954H8.00004V10.9433ZM16 19.1507C16.5556 19.1507 17.0276 18.951 17.416 18.5516C17.8054 18.153 18 17.6688 18 17.0988C18 16.5289 17.8054 16.0446 17.416 15.6461C17.0276 15.2467 16.5556 15.047 16 15.047C15.4445 15.047 14.9725 15.2467 14.584 15.6461C14.1947 16.0446 14 16.5289 14 17.0988C14 17.6688 14.1947 18.153 14.584 18.5516C14.9725 18.951 15.4445 19.1507 16 19.1507ZM10 20.5186H22C22.5778 20.5186 23.0556 20.3248 23.4334 19.9373C23.8112 19.5497 24 19.0595 24 18.4668V13.6791H8.00004V18.4668C8.00004 19.0595 8.18893 19.5497 8.56671 19.9373C8.94449 20.3248 9.42226 20.5186 10 20.5186ZM16 2.73582C14.0889 2.73582 12.5058 2.84981 11.2507 3.07779C9.99471 3.30578 9.11115 3.64775 8.60004 4.10372H23.5334C23.1334 3.64775 22.3054 3.30578 21.0494 3.07779C19.7943 2.84981 18.1112 2.73582 16 2.73582Z" fill="#332207"/>
</svg>
