<svg width="32" height="24" viewBox="0 0 32 24" fill="none" xmlns="http://www.w3.org/2000/svg">
<path d="M8.46667 15.5258L5.66667 12.5848C6.97778 11.2396 8.51689 10.174 10.284 9.38795C12.0502 8.60095 13.9556 8.20745 16 8.20745C18.0444 8.20745 19.9502 8.60642 21.7173 9.40436C23.4836 10.2023 25.0222 11.2852 26.3333 12.6531L23.5333 15.5258C22.5556 14.5226 21.4222 13.7361 20.1333 13.1661C18.8444 12.5961 17.4667 12.3112 16 12.3112C14.5333 12.3112 13.1556 12.5961 11.8667 13.1661C10.5778 13.7361 9.44444 14.5226 8.46667 15.5258ZM2.8 9.71214L0 6.83954C2.04444 4.69648 4.43333 3.0208 7.16667 1.81248C9.9 0.604159 12.8444 0 16 0C19.1556 0 22.1 0.604159 24.8333 1.81248C27.5667 3.0208 29.9556 4.69648 32 6.83954L29.2 9.71214C27.4889 7.95666 25.5058 6.58283 23.2507 5.59064C20.9947 4.59936 18.5778 4.10372 16 4.10372C13.4222 4.10372 11.0053 4.59936 8.74933 5.59064C6.49422 6.58283 4.51111 7.95666 2.8 9.71214ZM16 23.2544L20.7 18.3984C20.1 17.7828 19.4 17.2981 18.6 16.9443C17.8 16.5914 16.9333 16.4149 16 16.4149C15.0667 16.4149 14.2 16.5914 13.4 16.9443C12.6 17.2981 11.9 17.7828 11.3 18.3984L16 23.2544Z" fill="#332207"/>
</svg>
